<svg width="685" height="664" viewBox="0 0 685 664" fill="none" xmlns="http://www.w3.org/2000/svg">
<rect x="6.46332" y="337.396" width="650.155" height="170.282" rx="15" transform="rotate(-15 6.46332 337.396)" stroke="#8682A7" stroke-width="10"/>
<path d="M71.472 362.12C71.076 360.643 70.982 359.596 71.19 358.981C71.4616 358.256 72.119 357.754 73.1622 357.475C74.2923 357.172 76.5193 357.833 79.8432 359.458C83.167 361.083 85.1605 362.785 85.8235 364.564C87.0098 367.601 90.1523 372.722 95.2511 379.928C100.327 387.047 105.872 394.18 111.886 401.326C115.217 394.284 119.308 385.035 124.158 373.58C128.985 362.037 132.645 353.789 135.138 348.835C137.631 343.881 139.659 341.194 141.224 340.775C142.789 340.356 144.674 340.782 146.878 342.055C149.083 343.328 150.395 344.747 150.814 346.312C151.233 347.876 151.537 349.705 151.725 351.798C151.913 353.89 152.015 356.705 152.031 360.241C152.11 363.667 152.128 366.691 152.085 369.311C152.105 371.822 152.052 375.796 151.925 381.234C151.798 386.672 151.751 391.017 151.784 394.27C151.794 397.435 151.859 401.331 151.981 405.957C152.079 410.496 152.153 414.25 152.203 417.218C152.317 420.076 152.375 422.902 152.379 425.697C152.426 431.088 151.841 433.947 150.623 434.273C149.493 434.576 148.084 433.835 146.395 432.052C144.705 430.268 143.395 427.638 142.463 424.161C141.508 420.596 140.82 412.115 140.398 398.718C140.063 385.298 140.365 373.384 141.303 362.976C130.665 387.257 124.001 401.854 121.311 406.768C118.708 411.658 116.189 414.429 113.755 415.081C111.408 415.71 108.83 414.957 106.021 412.821C101.681 409.139 94.5992 399.576 84.7773 384.132C85.7453 393.656 86.19 401.922 86.1114 408.932C86.0965 415.83 86.0759 420.448 86.0497 422.785C86.0872 425.011 86.0749 426.877 86.013 428.385C86.0379 429.869 86.0458 431.637 86.0367 433.689C86.0043 435.655 85.9338 437.304 85.8252 438.638C85.8036 439.948 85.7734 441.4 85.7348 442.995C85.6728 444.502 85.5844 445.737 85.4696 446.7C85.4418 447.639 85.3588 448.546 85.2207 449.422C84.9212 451.086 84.5976 451.965 84.2499 452.058C83.2067 452.337 81.5999 451.557 79.4294 449.716C77.259 447.875 75.8943 445.911 75.3352 443.825C74.7762 441.738 74.3435 428.996 74.0372 405.598C73.8179 382.177 72.9628 367.684 71.472 362.12ZM235.143 363.688C235.586 365.339 232.273 368.277 225.205 372.5C228.323 381.355 230.732 388.955 232.433 395.301C235.368 406.255 235.444 412.104 232.663 412.85C231.185 413.246 229.767 412.647 228.408 411.055C227.05 409.462 225.504 406.475 223.771 402.095C220.926 393.912 218.085 385.915 215.246 378.104C211.614 380.195 208.306 382.106 205.322 383.837C202.315 385.482 197.796 388.09 191.765 391.663C189.473 413.707 187.631 424.916 186.24 425.289C184.849 425.661 183.107 425.243 181.012 424.034C178.982 422.715 177.71 421.099 177.198 419.186C176.965 418.317 177.788 411.481 179.669 398.678L178.756 398.922C177.017 399.388 175.301 399.242 173.607 398.485C172.001 397.704 170.976 396.488 170.533 394.836C170.067 393.098 173.765 389.684 181.626 384.596C182.178 381.094 182.551 377.966 182.745 375.212C183.417 369.721 184.382 362.195 185.64 352.633C186.898 343.072 187.691 336.989 188.018 334.386C188.322 331.696 189.427 329.21 191.331 326.929C193.3 324.539 195.414 323.04 197.674 322.435C200.369 321.713 203.913 325.375 208.305 333.422C212.785 341.447 217.377 351.63 222.082 363.973C224.446 363.06 226.541 362.359 228.367 361.87C232.279 360.821 234.537 361.427 235.143 363.688ZM193.236 377.852C198.966 374.546 205.113 371.408 211.678 368.438C206.13 353.991 201.615 343.228 198.134 336.148C196.621 346.15 194.989 360.051 193.236 377.852ZM268.567 317.136L246.548 324.154C245.157 324.526 243.478 323.998 241.511 322.568C239.544 321.139 238.328 319.555 237.862 317.816C237.443 316.251 239.652 314.587 244.491 312.825C249.417 311.039 260.356 307.875 277.308 303.333C286.088 300.98 293.56 300.003 299.723 300.402C305.973 300.777 309.412 302.138 310.041 304.485C310.484 306.137 309.271 307.347 306.402 308.116C303.533 308.885 299.488 309.782 294.265 310.809C289.043 311.835 284.073 312.934 279.355 314.105C279.849 314.905 280.236 315.826 280.515 316.869C281.377 320.086 281.993 335.947 282.364 364.452C282.414 367.42 282.535 372.047 282.728 378.331C282.921 384.615 282.984 389.024 282.918 391.557C282.935 396.491 282.466 399.086 281.51 399.342C280.206 399.691 278.472 399.131 276.307 397.661C274.207 396.081 272.889 394.291 272.353 392.292C271.817 390.292 271.416 379.405 271.149 359.63C270.858 339.769 269.998 325.604 268.567 317.136ZM359.601 280.724C361.861 280.118 364.549 280.935 367.665 283.175C370.868 285.392 372.726 287.456 373.238 289.369C373.727 291.194 373.624 292.2 372.929 292.387C372.32 292.55 371.022 292.571 369.033 292.452C367.021 292.246 365.276 292.341 363.798 292.737C360.408 293.645 356.744 296.49 352.808 301.272C348.958 306.03 345.547 311.557 342.575 317.85C339.69 324.121 337.611 330.967 336.338 338.389C335.043 345.725 335.035 351.783 336.317 356.564C337.598 361.346 339.758 364.54 342.798 366.148C345.901 367.646 349.453 367.859 353.452 366.788C357.45 365.716 361.428 364.045 365.385 361.773C369.319 359.415 372.435 357.136 374.734 354.936C380.687 349.334 384.011 346.44 384.707 346.254C386.185 345.858 387.192 346.659 387.727 348.659C388.24 350.571 386.939 353.715 383.825 358.09C380.688 362.378 376.513 366.618 371.301 370.81C366.088 375.002 361.135 377.727 356.44 378.985C350.355 380.615 343.918 379.545 337.131 375.773C330.32 371.914 326.065 366.812 324.364 360.466C322.175 352.294 322.357 342.369 324.911 330.69C327.529 318.9 332.009 308.149 338.352 298.437C344.781 288.701 351.864 282.797 359.601 280.724ZM416.516 363.447C415.473 363.726 413.736 362.98 411.304 361.209C408.85 359.351 407.343 357.379 406.784 355.293C406.225 353.206 405.855 344.174 405.673 328.197C404.427 328.065 403.229 327.594 402.08 326.784C400.995 325.863 400.266 324.707 399.893 323.317C399.59 322.186 401.513 320.32 405.661 317.718C405.382 293.381 404.509 278.474 403.042 272.997C402.646 271.519 402.552 270.473 402.76 269.858C403.031 269.133 403.732 268.619 404.862 268.316C406.08 267.99 408.005 268.918 410.64 271.101C413.362 273.26 415.177 276.035 416.085 279.425C416.97 282.729 417.531 293.34 417.767 311.26C428.613 305.838 439.463 301.3 450.317 297.646C449.906 278.376 449.013 266.176 447.639 261.047C446.94 258.439 447.46 256.902 449.198 256.437C450.676 256.041 452.776 256.922 455.498 259.081C458.219 261.24 459.976 263.798 460.768 266.754C461.537 269.622 461.945 278.97 461.993 294.797C466.155 294.334 468.48 295.016 468.97 296.841C469.435 298.58 467.125 300.736 462.038 303.311C462.005 314.314 462.002 321.955 462.031 326.234C462.122 330.402 462.179 333.741 462.199 336.251C462.219 338.762 462.196 341.284 462.13 343.817C462.147 348.751 461.678 351.346 460.722 351.602C459.505 351.928 457.802 351.313 455.615 349.756C453.491 348.089 452.138 346.168 451.556 343.995C450.973 341.822 450.588 329.952 450.4 308.386C438.173 313.525 427.277 318.588 417.712 323.573C417.706 328.42 417.709 333.125 417.72 337.687C417.795 342.14 417.843 345.621 417.863 348.131C417.883 350.641 417.86 353.163 417.794 355.697C417.811 360.63 417.385 363.214 416.516 363.447ZM504.308 295.758C503.597 311.881 503.66 321.508 504.499 324.638C504.778 325.681 505.316 326.469 506.111 327.001C506.969 327.423 507.92 327.495 508.963 327.215C518.96 324.536 529.57 319.97 540.792 313.515C544.424 311.424 546.545 310.297 547.153 310.134C548.457 309.784 549.354 310.522 549.843 312.348C550.682 315.477 546.719 319.987 537.954 325.876C529.277 331.742 520.461 335.874 511.507 338.273C507.508 339.345 503.673 339.115 500.001 337.583C496.416 336.028 494.147 333.468 493.192 329.904C492.237 326.339 491.867 319.916 492.082 310.634C492.383 301.329 492.534 291.459 492.533 281.023C492.532 270.588 491.635 262.024 489.841 255.33C489.585 254.373 489.491 253.327 489.559 252.191C490.175 248.578 499.22 244.431 516.694 239.749C534.167 235.067 543.242 233.986 543.917 236.507C544.383 238.246 542.829 239.921 539.254 241.531C536.287 242.978 532.266 244.661 527.189 246.58C522.177 248.389 518.662 249.704 516.646 250.523C514.606 251.256 509.773 253.39 502.148 256.924L502.253 257.315C503.837 263.226 504.616 272.568 504.591 285.34C505.136 285.287 506.886 284.864 509.842 284.073C512.885 283.257 516.869 281.957 521.794 280.171C526.72 278.385 530.444 277.155 532.965 276.479C535.573 275.78 537.04 276.04 537.366 277.257C538.181 280.299 535.222 283.515 528.49 286.903C521.757 290.29 513.697 293.242 504.308 295.758ZM559.597 226.716C567.769 224.526 577.033 224.326 587.389 226.117C597.832 227.884 607.414 231.653 616.135 237.422C624.832 243.105 630.263 249.989 632.43 258.074C633.851 263.376 631.833 270.626 626.377 279.821C620.985 288.906 614.151 297.306 605.876 305.021C597.577 312.649 590.255 317.313 583.909 319.013C582.257 319.456 579.972 318.577 577.053 316.378C574.198 314.068 572.386 311.479 571.617 308.61C570.825 305.654 570.528 294.46 570.725 275.027C570.922 255.593 570.469 242.95 569.366 237.096C566.282 236.711 563.669 235.827 561.528 234.444C559.387 233.061 558.095 231.544 557.653 229.892C557.21 228.24 557.858 227.181 559.597 226.716ZM620.049 259.854C618.604 254.464 613.827 249.501 605.717 244.966C597.583 240.343 588.884 237.783 579.619 237.283C580.473 238.732 581.192 240.543 581.774 242.716C582.333 244.802 582.61 248.967 582.606 255.211C582.689 261.432 582.56 271.902 582.218 286.622C582.103 292.802 582.445 299.466 583.242 306.613C589.03 304.224 595.026 299.822 601.227 293.408C607.492 286.885 612.371 280.406 615.865 273.973C619.446 267.516 620.841 262.809 620.049 259.854Z" fill="#8682A7"/>
<line x1="70.1364" y1="95.4039" x2="141.404" y2="170.864" stroke="#D78AA8" stroke-width="20" stroke-linecap="round"/>
<line x1="261.262" y1="10.0458" x2="292.93" y2="127.265" stroke="#D78AA8" stroke-width="20" stroke-linecap="round"/>
<line x1="440.491" y1="19.9952" x2="424.96" y2="87.1868" stroke="#D78AA8" stroke-width="20" stroke-linecap="round"/>
<line x1="10" y1="-10" x2="113.794" y2="-10" transform="matrix(0.231127 -0.972924 -0.972924 -0.231127 229 660.442)" stroke="#D78AA8" stroke-width="20" stroke-linecap="round"/>
<line x1="10" y1="-10" x2="131.421" y2="-10" transform="matrix(-0.256827 -0.966457 -0.966457 0.256827 442.143 643.617)" stroke="#D78AA8" stroke-width="20" stroke-linecap="round"/>
<line x1="10" y1="-10" x2="78.9632" y2="-10" transform="matrix(-0.68219 -0.731175 -0.731175 0.68219 598.992 547.287)" stroke="#D78AA8" stroke-width="20" stroke-linecap="round"/>
</svg>
